# xmcd
#
# Track frame offsets:
#	150
#	32645
#	46490
#	60130
#	81810
#	109685
#	122187
#	142730
#	169167
#	198675
#	210435
#	223787
#	244722
#	294257
#	315837
#	341260
#
# Disc length: 4728
#
# Revision: 1
# Processed by: cddbd v1.5.1PL0 Copyright (c) Steve Scherf et al.
# Submitted via: CDex 1.51
# Normalized: r0:DSETVAR1
#
DISCID=d9127610
DTITLE=Various Artist - HMV Greatest Jazz Collection CD3
DYEAR=2001
DGENRE=Jazz
TTITLE0=john coltrane - lazy bird (alternate take)
TTITLE1=miles davis - chance it
TTITLE2=stan getz - you go to my head
TTITLE3=lou donaldson - turtle walk
TTITLE4=herbie hancock - maiden voyage
TTITLE5=bud powell - indiana
TTITLE6=sonny rollins - 52nd street theme
TTITLE7=art blakey - sam's tune
TTITLE8=dexter gordon - cheesecake
TTITLE9=artie shaw - it had to be you
TTITLE10=lionel hampton - flying home
TTITLE11=buddy rich - love for sale
TTITLE12=cannonball adderley and miles davis - autumn leaves
TTITLE13=horace silver quintet - finger poppin'
TTITLE14=lee morgan - somethin - cute
TTITLE15=jimmy mcgriff - the worm
EXTD=YEAR: 2001
EXTT0=
EXTT1=
EXTT2=
EXTT3=
EXTT4=
EXTT5=
EXTT6=
EXTT7=
EXTT8=
EXTT9=
EXTT10=
EXTT11=
EXTT12=
EXTT13=
EXTT14=
EXTT15=
PLAYORDER=
